<svg viewBox="0 0 374 185" fill="none" xmlns="http://www.w3.org/2000/svg">
    <path d="m60.1 4.947-.248 22.103 4.47-.248c0 9.542-.993 19.033-.993 28.56 3.839-.914 8.476-.248 12.417-.248-1.53.737-3.353.881-4.967 1.505-3.676 1.422-7.339 3.728-9.934 6.69.285-6.621.809-13.253 1.264-19.868.236-3.417.723-6.735.723-10.182H0c0 4.493.54 8.932.735 13.41.232 5.294.036 10.6.268 15.895.145 3.298.447 6.633.486 9.934.213 17.868.186 35.793-.251 53.643-.13 5.299-.493 10.583-.493 15.895h60.1v-3.229c4.564 3.076 9.157 4.354 14.653 3.951 2.136-.156 4.023-.811 6.209-.713 8.34.376 16.733 1.475 25.083 1.481v-3.725h17.384c-.17.918-.245 1.797-.248 2.731 8.868 0 17.71-1.24 26.573-1.241 0 6.968-.745 13.896-.745 20.861 2.889.544 5.808.926 8.693 1.49 5.912 1.156 12.139 1.177 18.129.767 9.005-.617 18.339-2.421 23.536-10.701 1.128-1.797 1.919-3.694 2.547-5.712.771-2.482 1.62-5.086 1.732-7.699 5.5-.434 11.124-1.475 16.639-1.49-.693 1.635-2.044 2.909-2.902 4.47a27.977 27.977 0 0 0-3.268 10.183c-1.204 9.933-.088 24.409 9.896 29.721 5.227 2.783 11.275.981 16.887 1.075 1.041.018 1.955.453 2.983.491 1.557.058 3.179-.348 4.706-.208.864.079 1.605.455 2.494.459 5.029.024 10.127-.707 15.149-.968 1.12-.058 2.111.453 3.228.472 2.978.05 5.953-.247 8.941-.247V185c3.479-.072 6.954-.656 10.431-.741 6.139-.151 12.258.244 18.377.244v-22.351l-2.98.497v-5.464l2.484.497-.249-14.901c4.98 0 9.929.742 14.901.745v-3.725h17.385a14.807 14.807 0 0 0-.249 2.731c10.605 0 21.187-1.49 31.789-1.49 0-5.557.839-11.103 1.219-16.639 1.014-14.698 2.581-30.064.125-44.703-1.481-8.83-5.015-19.258-14.258-22.577-4.247-1.525-9.169-1.252-13.411.144-1.798.592-3.633 1.95-5.464 2.261-3.419.583-6.976.223-10.43.308-4.957.121-9.939.493-14.901.493v.993c-7.98-7.631-20.929-8.426-30.547-3.537-3.022 1.536-6.845 3.931-8.444 7.014h-.497c-2.563-8.71-14.444-10.845-22.103-9.185-1.525.33-3.069.87-4.47 1.55-.81.395-1.813 1.252-2.732 1.291-.727.03-1.388-.55-1.987-.89-1.179-.67-2.416-1.231-3.725-1.6-4.507-1.272-9.243-1.046-13.659.39v-1.49c-3.656.54-7.102 2.443-10.679 3.358-3.851.986-8.213.989-12.169.936-3.657-.048-7.283-.4-10.927-.559-2.555-.112-5.444.178-7.948-.327-1.144-.23-2.192-1.09-3.228-1.608-1.648-.823-3.394-1.424-5.215-1.729-9.161-1.533-18.516 4.023-22.103 12.595-1.393-2.383-2.726-4.742-4.723-6.696-4.675-4.575-11.222-5.379-17.381-4.12-1.635.335-3.236.93-4.718 1.691-.967.497-1.878 1.25-2.98 1.393-2.193.284-4.497-.054-6.706.043-6.118.268-12.244.487-18.377.487v1.242c-3.632-3.602-8.52-6.048-13.66-6.457 1.493-.442 3.17-.249 4.719-.249h8.692v.994c3.48-.072 6.954-.657 10.431-.742 6.138-.15 12.257.245 18.378.245V33.01l-2.981.496v-5.463l2.484.496V4.947c-4.392.012-8.773.882-13.163.99-5.138.126-10.274-.77-15.397-.99 0 .446.003.378.248.745-3.698 0-7.506-.398-11.176-.238-8.912.386-18.23 1.134-27.07-.507Z"
          fill="#0B1524"/>
    <path d="m60.1 0-.248 22.103 4.47-.248c0 9.542-.993 19.033-.993 28.56 3.839-.914 8.476-.249 12.417-.249-1.53.738-3.353.882-4.967 1.506-3.676 1.422-7.339 3.728-9.934 6.69.285-6.622.809-13.254 1.264-19.868.236-3.417.723-6.735.723-10.182H0c0 4.493.54 8.932.735 13.41.232 5.294.036 10.6.268 15.895.145 3.298.447 6.633.486 9.934.213 17.868.186 35.792-.251 53.643-.13 5.299-.493 10.583-.493 15.895h60.1v-3.229c4.564 3.076 9.157 4.354 14.653 3.951 2.136-.157 4.023-.811 6.209-.713 8.34.376 16.733 1.475 25.083 1.481v-3.726h17.384c-.17.919-.245 1.798-.248 2.732 8.868 0 17.71-1.241 26.573-1.242 0 6.968-.745 13.897-.745 20.862 2.889.544 5.808.926 8.693 1.49 5.912 1.156 12.139 1.177 18.129.767 9.005-.617 18.339-2.421 23.536-10.701 1.128-1.797 1.919-3.694 2.547-5.712.771-2.483 1.62-5.086 1.732-7.699 5.5-.434 11.124-1.475 16.639-1.49-.693 1.635-2.044 2.909-2.902 4.47a27.971 27.971 0 0 0-3.268 10.183c-1.204 9.933-.088 24.409 9.896 29.721 5.227 2.782 11.275.981 16.887 1.075 1.041.017 1.955.453 2.983.491 1.557.058 3.179-.348 4.706-.208.864.079 1.605.454 2.494.459 5.029.024 10.127-.707 15.149-.968 1.12-.059 2.111.453 3.228.472 2.978.05 5.953-.247 8.941-.247v.745c3.479-.072 6.954-.656 10.431-.741 6.139-.151 12.258.244 18.377.244v-22.351l-2.98.496v-5.463l2.484.496-.249-14.9c4.98 0 9.929.741 14.901.745v-3.726h17.385c-.172.92-.246 1.798-.249 2.732 10.605 0 21.187-1.49 31.789-1.49 0-5.557.839-11.103 1.219-16.639 1.014-14.698 2.581-30.064.125-44.703-1.481-8.83-5.015-19.258-14.258-22.577-4.247-1.525-9.169-1.252-13.411.144-1.798.592-3.633 1.95-5.464 2.26-3.419.584-6.976.224-10.43.309-4.957.121-9.939.493-14.901.493v.993c-7.98-7.631-20.929-8.426-30.547-3.537-3.022 1.536-6.845 3.931-8.444 7.014h-.497c-2.563-8.71-14.444-10.846-22.103-9.185-1.525.33-3.069.87-4.47 1.55-.81.395-1.813 1.252-2.732 1.291-.727.03-1.388-.55-1.987-.89-1.179-.67-2.416-1.231-3.725-1.6-4.507-1.272-9.243-1.046-13.659.39v-1.49c-3.656.54-7.102 2.443-10.679 3.358-3.851.985-8.213.989-12.169.936-3.657-.049-7.283-.4-10.927-.559-2.555-.112-5.444.178-7.948-.327-1.144-.23-2.192-1.09-3.228-1.608-1.648-.824-3.394-1.424-5.215-1.729-9.161-1.533-18.516 4.022-22.103 12.595-1.393-2.384-2.726-4.742-4.723-6.696-4.675-4.576-11.222-5.38-17.381-4.12-1.635.335-3.236.93-4.718 1.691-.967.497-1.878 1.25-2.98 1.393-2.193.284-4.497-.054-6.706.043-6.118.268-12.244.487-18.377.487v1.242c-3.632-3.602-8.52-6.049-13.66-6.458 1.493-.44 3.17-.248 4.719-.248h8.692v.993c3.48-.071 6.954-.656 10.431-.74 6.138-.151 12.257.244 18.378.244V28.063l-2.981.497v-5.464l2.484.497V0c-4.392.012-8.773.882-13.163.99-5.138.126-10.274-.77-15.397-.99 0 .446.003.378.248.745-3.698 0-7.506-.398-11.176-.239C78.258.893 68.94 1.641 60.1 0Z"
          fill="#243041"/>
    <path d="M27.413 36.727c-.432 8.55-.8 17.036-1.102 25.456a1217.42 1217.42 0 0 0-.647 25.263c1.08.086 2.159.13 3.238.13h3.304a150.511 150.511 0 0 0 8.615-.26c.086-1.9.13-3.757.13-5.57v-5.7c0-6.565-.065-13.107-.195-19.628-.13-6.52-.345-13.084-.648-19.691h15.935a954.803 954.803 0 0 0-1.814 31.027 816.004 816.004 0 0 0-.582 30.963c0 5.095.064 10.169.194 15.222.13 5.052.302 10.148.518 15.287H39.59c.216-5.139.41-10.256.583-15.352l.518-15.287c-2.461-.13-4.922-.237-7.384-.324-2.418-.13-4.837-.194-7.255-.194h-.518v22.282c0 2.937.043 5.895.13 8.875H10.83c.216-6.219.346-12.351.389-18.396.086-6.089.13-12.2.13-18.332 0-18.569-.39-37.16-1.167-55.771h17.23Z"
          fill="url(#a)"/>
    <path d="M101.046 88.482c0 6.823-.043 13.646-.129 20.469a930.25 930.25 0 0 1-.389 21.311l-11.27-.648v-8.744c-1.296 2.332-2.764 4.124-4.405 5.376-1.641 1.209-3.196 2.116-4.664 2.721-1.728.691-3.433 1.079-5.117 1.166-2.073 0-4.017-.454-5.83-1.361a15.951 15.951 0 0 1-4.729-3.757 18.268 18.268 0 0 1-3.174-5.311 18.336 18.336 0 0 1-1.101-6.283c0-2.462.518-4.88 1.555-7.255 1.08-2.419 2.893-4.599 5.44-6.543 3.412-2.634 6.37-4.836 8.875-6.607 2.504-1.77 4.577-3.368 6.218-4.793 1.684-1.468 2.915-2.85 3.693-4.146.82-1.338 1.23-2.871 1.23-4.599 0-2.85-.475-4.966-1.425-6.348-.95-1.425-2.202-2.137-3.757-2.137-.95 0-1.77.259-2.461.777-.648.475-1.188 1.123-1.62 1.943-.388.778-.69 1.663-.907 2.656-.172.95-.259 1.9-.259 2.85 0 .648.022 1.36.065 2.138.087.777.238 1.598.454 2.461l-14.899.26a41.41 41.41 0 0 1-.194-2.073c-.043-.691-.065-1.36-.065-2.008 0-2.678.454-5.312 1.36-7.903.907-2.634 2.224-4.966 3.952-6.996 1.77-2.072 3.908-3.735 6.413-4.987 2.504-1.253 5.376-1.879 8.615-1.879 4.188 0 7.492.885 9.91 2.656 2.462 1.727 4.319 4.016 5.57 6.866 1.296 2.85 2.117 6.089 2.462 9.716.389 3.585.583 7.255.583 11.012Zm-14.574 18.331c.216-1.079.41-2.31.583-3.692.173-1.166.324-2.569.453-4.21.13-1.684.238-3.563.324-5.636-.69.95-1.36 1.793-2.008 2.527a42.917 42.917 0 0 1-1.814 1.943 63.389 63.389 0 0 1-1.813 1.749c-.993.82-2.052 1.749-3.174 2.785a30.741 30.741 0 0 0-3.11 3.174 22.428 22.428 0 0 0-2.331 3.498c-.605 1.166-.907 2.31-.907 3.433 0 1.209.41 2.332 1.23 3.368.821.994 1.836 1.49 3.045 1.49.907 0 1.835-.259 2.785-.777.993-.518 1.922-1.252 2.786-2.202a15.832 15.832 0 0 0 2.396-3.304c.691-1.252 1.21-2.634 1.555-4.146Z"
          fill="url(#b)"/>
    <path d="M134.325 129.355c.95-6.952 1.62-13.991 2.008-21.116.432-7.126.648-14.597.648-22.413 0-2.634-.173-4.728-.518-6.283-.346-1.598-.799-2.807-1.361-3.627-.561-.864-1.165-1.404-1.813-1.62-.648-.259-1.274-.388-1.879-.388-.863 0-1.684.15-2.461.453-.734.302-1.425.885-2.073 1.75-.648.863-1.252 2.072-1.814 3.626-.518 1.555-.971 3.606-1.36 6.154-.389 2.548-.691 5.657-.907 9.328-.173 3.627-.259 7.967-.259 13.02v11.27c.043 1.771.065 3.347.065 4.729.043 1.339.108 2.289.194 2.85l-14.639-.129c.13-3.93.216-7.428.259-10.494.086-3.109.151-5.959.194-8.55.044-2.591.065-5.01.065-7.255.043-2.289.065-4.534.065-6.737 0-1.986-.022-4.016-.065-6.089 0-2.116-.021-4.383-.065-6.801 0-2.418-.043-5.052-.129-7.903a994.153 994.153 0 0 0-.194-9.586l15.157-.389-.259 6.607c1.166-2.202 2.418-3.951 3.757-5.247 1.338-1.338 2.656-2.375 3.951-3.109 1.339-.734 2.634-1.209 3.887-1.425 1.252-.259 2.375-.389 3.368-.389 2.677 0 4.88.929 6.607 2.786 1.727 1.857 3.088 4.34 4.081 7.449 1.036 3.066 1.749 6.585 2.137 10.558.389 3.973.583 8.097.583 12.372 0 3.11-.086 6.262-.259 9.457a326.6 326.6 0 0 1-.518 9.458 272.596 272.596 0 0 1-.648 8.939c-.216 2.85-.41 5.505-.583 7.967l-15.222.777Z"
          fill="url(#c)"/>
    <path d="M199.02 112.384a1397.99 1397.99 0 0 1-.518 13.538c-.173 3.887-.518 7.298-1.037 10.235-.518 2.936-1.295 5.398-2.332 7.384a12.549 12.549 0 0 1-4.339 4.793c-1.814 1.209-4.146 2.073-6.996 2.591-2.807.562-6.262.842-10.364.842-2.03 0-4.211-.086-6.543-.259-2.331-.129-4.836-.432-7.513-.907l.518-14.25c3.195.216 6.002.389 8.421.518l6.153.324c1.943.13 3.628.216 5.053.259 2.072 0 3.627-1.209 4.663-3.627 1.08-2.419 1.685-5.765 1.814-10.04-.777 1.727-1.662 3.13-2.656 4.21-.95 1.08-1.943 1.922-2.979 2.526-.993.648-1.987 1.08-2.98 1.296a12.02 12.02 0 0 1-2.656.324c-2.202 0-4.383-.67-6.542-2.008-2.159-1.339-4.102-3.542-5.83-6.608-1.684-3.109-3.066-7.146-4.145-12.112-1.08-5.01-1.62-11.185-1.62-18.526 0-5.7.454-10.71 1.361-15.028.95-4.318 2.202-7.946 3.756-10.882 1.555-2.937 3.347-5.139 5.377-6.607 2.029-1.512 4.145-2.267 6.348-2.267 1.036 0 2.137.172 3.303.518 1.209.345 2.419.971 3.628 1.878 1.209.864 2.353 2.051 3.433 3.563 1.123 1.468 2.094 3.368 2.915 5.7l-.13-7.967 11.53.583.907 50.006Zm-14.186-13.279c0-1.339-.021-2.915-.065-4.728 0-1.857-.064-3.757-.194-5.7a51.226 51.226 0 0 0-.583-5.83c-.302-1.9-.734-3.606-1.295-5.118-.519-1.511-1.21-2.72-2.073-3.627-.864-.95-1.943-1.425-3.239-1.425-1.641 0-2.936.69-3.886 2.073-.907 1.382-1.598 3.152-2.073 5.311-.432 2.16-.691 4.535-.778 7.126a226.698 226.698 0 0 0-.129 7.514c0 1.684.021 3.454.065 5.311.086 1.857.216 3.714.388 5.571.173 1.813.432 3.541.778 5.182.345 1.641.777 3.109 1.295 4.404.518 1.253 1.144 2.246 1.879 2.98.777.734 1.684 1.101 2.72 1.101 1.296 0 2.397-.518 3.304-1.554.907-1.08 1.641-2.527 2.202-4.34.605-1.814 1.036-3.93 1.296-6.348.259-2.462.388-5.096.388-7.903Z"
          fill="url(#d)"/>
    <path d="M246.29 88.612c-.172 5.182-.345 10.191-.518 15.027-.086 2.073-.173 4.211-.259 6.413a290.37 290.37 0 0 1-.324 6.478c-.086 2.073-.173 4.081-.259 6.024-.086 1.9-.173 3.584-.259 5.052l-14.186 1.361c.346-5.701.626-10.688.842-14.963.216-4.319.367-8.011.454-11.077.129-3.11.216-5.7.259-7.773.043-2.073.043-3.735 0-4.988 0-1.252-.022-2.18-.065-2.785v-1.166c0-2.418-.108-4.383-.324-5.895-.173-1.511-.432-2.698-.777-3.562-.346-.864-.778-1.447-1.296-1.75a2.951 2.951 0 0 0-1.619-.453c-.777 0-1.576.152-2.397.454-.777.259-1.49.82-2.137 1.684-.605.82-1.102 2.008-1.49 3.563-.389 1.554-.583 3.627-.583 6.218v14.445c.043 4.664.108 8.874.194 12.631.043 4.362.108 8.529.194 12.502l-15.416 1.425c.345-4.578.561-9.047.648-13.409.129-4.361.194-8.291.194-11.789 0-6.564-.151-13.063-.453-19.497a342.058 342.058 0 0 0-1.425-20.145c2.763-.087 5.03-.194 6.801-.324 1.77-.13 3.174-.28 4.21-.454 1.209-.172 2.138-.367 2.786-.582l.129 7.837c.907-1.468 1.9-2.85 2.98-4.145 1.123-1.296 2.289-2.397 3.498-3.304 1.209-.95 2.461-1.684 3.757-2.202a10.463 10.463 0 0 1 4.081-.842c1.554 0 2.914.13 4.08.388 1.21.216 2.246.67 3.11 1.36.906.648 1.662 1.577 2.267 2.786.604 1.166 1.122 2.677 1.554 4.534a33.562 33.562 0 0 1 2.527-3.433 19.262 19.262 0 0 1 3.044-2.915 13.93 13.93 0 0 1 3.563-2.008c1.252-.475 2.634-.712 4.145-.712 2.375 0 4.383.28 6.024.842 1.641.561 2.958 1.706 3.952 3.433 1.036 1.684 1.77 4.102 2.202 7.255.475 3.109.712 7.233.712 12.372 0 7.384-.172 14.79-.518 22.218-.345 7.384-.712 15.006-1.101 22.865l-14.186 1.361c.519-7.946.864-14.618 1.037-20.016.216-5.441.345-9.824.388-13.15.044-3.324.044-5.721 0-7.19a197.336 197.336 0 0 1-.064-2.526c0-2.375-.13-4.318-.389-5.83-.216-1.51-.54-2.677-.972-3.497-.388-.864-.863-1.447-1.425-1.75a3.405 3.405 0 0 0-1.749-.453c-.388 0-.82.044-1.295.13-.475.043-.972.26-1.49.648-.518.345-1.036.907-1.555 1.684-.475.777-.928 1.857-1.36 3.239.13 1.943.194 3.67.194 5.182.044 1.511.065 2.57.065 3.174Z"
          fill="url(#e)"/>
    <path d="M315.649 88.482c0 6.823-.043 13.646-.13 20.469a930.097 930.097 0 0 1-.388 21.311l-11.271-.648v-8.744c-1.296 2.332-2.764 4.124-4.405 5.376-1.641 1.209-3.196 2.116-4.664 2.721-1.727.691-3.433 1.079-5.117 1.166-2.073 0-4.016-.454-5.83-1.361a15.949 15.949 0 0 1-4.728-3.757 18.255 18.255 0 0 1-3.174-5.311 18.34 18.34 0 0 1-1.102-6.283c0-2.462.519-4.88 1.555-7.255 1.08-2.419 2.893-4.599 5.441-6.543 3.412-2.634 6.37-4.836 8.874-6.607 2.505-1.77 4.578-3.368 6.219-4.793 1.684-1.468 2.915-2.85 3.692-4.146.82-1.338 1.231-2.871 1.231-4.599 0-2.85-.475-4.966-1.425-6.348-.95-1.425-2.203-2.137-3.757-2.137-.95 0-1.771.259-2.462.777-.648.475-1.187 1.123-1.619 1.943-.389.778-.691 1.663-.907 2.656-.173.95-.259 1.9-.259 2.85 0 .648.022 1.36.065 2.138.086.777.237 1.598.453 2.461l-14.898.26a40.357 40.357 0 0 1-.194-2.073c-.044-.691-.065-1.36-.065-2.008 0-2.678.453-5.312 1.36-7.903.907-2.634 2.224-4.966 3.951-6.996 1.771-2.072 3.908-3.735 6.413-4.987 2.505-1.253 5.376-1.879 8.615-1.879 4.189 0 7.492.885 9.911 2.656 2.461 1.727 4.318 4.016 5.57 6.866 1.296 2.85 2.116 6.089 2.462 9.716.388 3.585.583 7.255.583 11.012Zm-14.575 18.331c.216-1.079.411-2.31.583-3.692.173-1.166.324-2.569.454-4.21.129-1.684.237-3.563.324-5.636a34.694 34.694 0 0 1-2.008 2.527 43.316 43.316 0 0 1-1.814 1.943 62.983 62.983 0 0 1-1.814 1.749c-.993.82-2.051 1.749-3.174 2.785a30.81 30.81 0 0 0-3.109 3.174 22.429 22.429 0 0 0-2.332 3.498c-.604 1.166-.907 2.31-.907 3.433 0 1.209.411 2.332 1.231 3.368.821.994 1.835 1.49 3.044 1.49.907 0 1.836-.259 2.786-.777.993-.518 1.921-1.252 2.785-2.202a15.83 15.83 0 0 0 2.397-3.304c.691-1.252 1.209-2.634 1.554-4.146Z"
          fill="url(#f)"/>
    <path d="M348.928 129.355a260.99 260.99 0 0 0 2.008-21.116c.432-7.126.647-14.597.647-22.413 0-2.634-.172-4.728-.518-6.283-.345-1.598-.799-2.807-1.36-3.627-.561-.864-1.166-1.404-1.814-1.62-.647-.259-1.274-.388-1.878-.388-.864 0-1.684.15-2.462.453-.734.302-1.425.885-2.072 1.75-.648.863-1.253 2.072-1.814 3.626-.518 1.555-.972 3.606-1.36 6.154-.389 2.548-.691 5.657-.907 9.328-.173 3.627-.259 7.967-.259 13.02v11.27c.043 1.771.064 3.347.064 4.729.044 1.339.108 2.289.195 2.85l-14.639-.129c.129-3.93.215-7.428.259-10.494.086-3.109.151-5.959.194-8.55.043-2.591.065-5.01.065-7.255.043-2.289.065-4.534.065-6.737 0-1.986-.022-4.016-.065-6.089 0-2.116-.022-4.383-.065-6.801 0-2.418-.043-5.052-.13-7.903a994.153 994.153 0 0 0-.194-9.586l15.157-.389-.259 6.607c1.166-2.202 2.419-3.951 3.757-5.247 1.339-1.338 2.656-2.375 3.952-3.109 1.338-.734 2.634-1.209 3.886-1.425 1.252-.259 2.375-.389 3.368-.389 2.678 0 4.88.929 6.607 2.786 1.728 1.857 3.088 4.34 4.081 7.449 1.037 3.066 1.749 6.585 2.138 10.558.389 3.973.583 8.097.583 12.372 0 3.11-.086 6.262-.259 9.457a333.88 333.88 0 0 1-.518 9.458 272.596 272.596 0 0 1-.648 8.939c-.216 2.85-.41 5.505-.583 7.967l-15.222.777Z"
          fill="url(#g)"/>
    <path d="M81.531 12.89a45.257 45.257 0 0 0-1.717-.07 83.869 83.869 0 0 0-2.042-.023 178.14 178.14 0 0 0-.278 4.478 415.715 415.715 0 0 0-.163 4.687 241.134 241.134 0 0 0-.092 4.78 486.63 486.63 0 0 0-.024 4.733c0 1.779.008 3.504.024 5.174.03 1.655.085 3.257.162 4.803h-4.942c.139-2.63.247-5.43.325-8.4.077-2.97.116-5.962.116-8.979 0-1.964-.024-3.882-.07-5.754a4240.42 4240.42 0 0 0-.14-5.476c-.742 0-1.446.008-2.11.023a51.05 51.05 0 0 0-1.787.07l.046-4.85c.557.047 1.183.085 1.88.116a1204.208 1204.208 0 0 0 4.547.093h4.548c.696 0 1.315-.015 1.856-.046l-.139 4.64ZM92.051 8.04a626.131 626.131 0 0 0-.394 9.119c-.108 3-.186 6.017-.232 9.049.387.03.773.046 1.16.046h1.183a54.044 54.044 0 0 0 3.086-.093c.031-.68.047-1.345.047-1.995v-2.042c0-2.351-.023-4.694-.07-7.03A273.304 273.304 0 0 0 96.6 8.04h5.708a344.087 344.087 0 0 0-.65 11.114 292.727 292.727 0 0 0-.208 11.091c0 1.826.023 3.643.069 5.453.047 1.81.108 3.635.186 5.476h-5.29c.077-1.84.147-3.674.208-5.5l.186-5.475a150.87 150.87 0 0 0-2.645-.116 48.576 48.576 0 0 0-2.599-.07h-.185v7.982c0 1.052.015 2.112.046 3.179H86.11c.078-2.228.124-4.424.14-6.59A478.788 478.788 0 0 0 85.88 8.04h6.171ZM116.865 28.946a44.366 44.366 0 0 0-2.947-.093c-.279 0-.572.008-.882.023a16.75 16.75 0 0 1-.882.023l-.092 8.284a69.226 69.226 0 0 0 3.689-.186 53.953 53.953 0 0 0 3.828-.44v4.849c-.866-.031-1.709-.054-2.529-.07a136.037 136.037 0 0 0-5.986.023c-1.176.047-2.39.109-3.643.186.139-2.877.248-5.723.325-8.539.093-2.83.139-5.684.139-8.561 0-2.754-.039-5.484-.116-8.191-.062-2.723-.178-5.46-.348-8.214 1.825.14 3.566.209 5.221.209 1.052 0 2.096-.023 3.132-.07 1.052-.062 2.173-.139 3.365-.232v5.337a37.163 37.163 0 0 0-2.854-.395 27.997 27.997 0 0 0-2.785-.139h-.905a122.69 122.69 0 0 0-.325 5.778 727.13 727.13 0 0 0-.116 5.777c.403.031.805.047 1.207.047h2.367c.371 0 .75-.016 1.137-.047v4.64ZM237.506 154.687c-.078.557-.163 1.191-.256 1.903a68.742 68.742 0 0 0-.208 2.297c-.062.804-.116 1.655-.163 2.552a75.96 75.96 0 0 0-.046 2.669c0 .201.008.495.023.881.031.372.062.789.093 1.253.031.449.062.921.093 1.416.046.479.085.935.116 1.369.046.417.085.781.116 1.09.031.31.062.518.092.627a9.478 9.478 0 0 1-1.786.626c-.588.155-1.114.271-1.578.348-.541.077-1.067.124-1.578.139-.557 0-1.16-.1-1.81-.301-.634-.201-1.276-.542-1.925-1.021-.65-.495-1.277-1.16-1.88-1.996-.603-.85-1.137-1.91-1.601-3.178-.464-1.284-.835-2.816-1.114-4.595-.278-1.779-.417-3.851-.417-6.218s.162-4.432.487-6.195c.34-1.764.773-3.272 1.299-4.525.542-1.268 1.145-2.305 1.81-3.109.681-.82 1.369-1.462 2.065-1.926.696-.479 1.369-.804 2.019-.974.665-.186 1.237-.279 1.717-.279.448.016.889.062 1.322.139.372.078.758.194 1.161.348.417.155.781.372 1.09.65l-.464 4.664a5.778 5.778 0 0 0-1.23-.464 3.82 3.82 0 0 0-1.067-.163c-.65 0-1.23.178-1.74.534-.495.34-.928.797-1.3 1.369a10.391 10.391 0 0 0-.928 1.949c-.247.727-.448 1.47-.603 2.228-.387 1.778-.603 3.805-.65 6.079.047 1.964.225 3.766.534 5.406.139.696.309 1.392.51 2.088.217.696.472 1.346.766 1.949.31.588.665 1.099 1.067 1.532.418.433.898.735 1.439.905a84.749 84.749 0 0 0-.302-5.987 79.996 79.996 0 0 0-.696-5.986l5.523-.093ZM251.715 171.509l-.232-3.225a120.397 120.397 0 0 0-.232-3.272c-.68-.046-1.338-.092-1.972-.139a26.608 26.608 0 0 0-1.926-.069h-.302a259.093 259.093 0 0 0-.371 6.52l-5.801-.093a520.656 520.656 0 0 0 2.599-16.521 385.015 385.015 0 0 0 1.972-16.613l6.984.116a386.392 386.392 0 0 0 2.112 16.474 356.296 356.296 0 0 0 2.924 16.451l-5.755.371ZM249 143.944a834.119 834.119 0 0 0-.881 8.516 482.12 482.12 0 0 0-.766 8.562c.325.03.657.046.998.046h2.552a371.996 371.996 0 0 0-.882-8.562 941.319 941.319 0 0 0-1.021-8.562ZM277.781 171.37c.047-2.367.101-4.772.163-7.216.015-1.036.031-2.135.046-3.295a265.695 265.695 0 0 0 .093-7.1c.016-1.191.023-2.336.023-3.434v-2.065c0-.665-.015-1.292-.046-1.88l-.719 4.432a450.851 450.851 0 0 0-.882 5.963 458.964 458.964 0 0 0-.928 6.892 302.745 302.745 0 0 0-.789 7.239l-4.409-.116c-.371-2.413-.734-4.788-1.09-7.123a814.054 814.054 0 0 0-.998-6.66c-.309-2.103-.596-4.052-.858-5.847a651.873 651.873 0 0 1-.673-4.687v8.075c0 1.671.007 3.357.023 5.058.015 1.686.031 3.28.046 4.78.031 1.5.07 2.854.116 4.061.047 1.191.109 2.119.186 2.784l-6.311.371c.232-1.315.417-2.792.557-4.432.154-1.639.27-3.356.348-5.151.092-1.794.154-3.619.185-5.476.031-1.856.047-3.658.047-5.406 0-1.794-.016-3.473-.047-5.035a248.924 248.924 0 0 0-.069-4.107 482.028 482.028 0 0 1-.116-3.782c.495.077 1.013.147 1.554.209.542.046 1.075.085 1.601.116a53.724 53.724 0 0 0 2.877.093h.72c.232 0 .433-.008.603-.024.186 0 .348-.007.487-.023l1.88 12.994c.51 3.527.912 6.211 1.206 8.051.17-1.175.333-2.382.487-3.619a173.462 173.462 0 0 0 .836-7.286c.124-1.176.232-2.282.325-3.318.216-2.444.41-4.811.58-7.1.34.031.711.062 1.113.093.356.031.774.054 1.253.069.495.016 1.037.023 1.625.023.587 0 1.222-.007 1.902-.023a37.1 37.1 0 0 0 2.135-.162c-.186 5.785-.278 10.789-.278 15.012 0 3.109.03 5.785.092 8.028.078 2.243.155 4.1.232 5.569.093 1.733.209 3.171.348 4.316l-5.476.139ZM297.954 158.91a45.346 45.346 0 0 0-2.947-.093c-.278 0-.572.008-.881.023-.294.016-.588.024-.882.024l-.093 8.283a70.143 70.143 0 0 0 3.689-.185 54.157 54.157 0 0 0 3.829-.441v4.849a129.493 129.493 0 0 0-8.516-.046 164.12 164.12 0 0 0-3.642.185c.139-2.877.247-5.723.324-8.538.093-2.831.14-5.685.14-8.562 0-2.754-.039-5.484-.116-8.191-.062-2.722-.178-5.46-.348-8.214 1.825.139 3.565.209 5.22.209 1.052 0 2.096-.023 3.133-.07 1.052-.062 2.173-.139 3.364-.232v5.337c-.959-.17-1.91-.302-2.854-.394a27.903 27.903 0 0 0-2.784-.14h-.905a121.42 121.42 0 0 0-.325 5.778 727.48 727.48 0 0 0-.116 5.777c.402.031.804.047 1.207.047h2.366c.371 0 .75-.016 1.137-.047v4.641Z"
          fill="#fff"/>
    <defs>
        <linearGradient id="a" x1="186.401" y1="-13.708" x2="186.401" y2="200.529" gradientUnits="userSpaceOnUse">
            <stop stop-color="#67B6FF"/>
            <stop offset="1" stop-color="#fff"/>
        </linearGradient>
        <linearGradient id="b" x1="186.401" y1="-13.708" x2="186.401" y2="200.529" gradientUnits="userSpaceOnUse">
            <stop stop-color="#67B6FF"/>
            <stop offset="1" stop-color="#fff"/>
        </linearGradient>
        <linearGradient id="c" x1="186.401" y1="-13.708" x2="186.401" y2="200.529" gradientUnits="userSpaceOnUse">
            <stop stop-color="#67B6FF"/>
            <stop offset="1" stop-color="#fff"/>
        </linearGradient>
        <linearGradient id="d" x1="186.401" y1="-13.708" x2="186.401" y2="200.529" gradientUnits="userSpaceOnUse">
            <stop stop-color="#67B6FF"/>
            <stop offset="1" stop-color="#fff"/>
        </linearGradient>
        <linearGradient id="e" x1="186.401" y1="-13.708" x2="186.401" y2="200.529" gradientUnits="userSpaceOnUse">
            <stop stop-color="#67B6FF"/>
            <stop offset="1" stop-color="#fff"/>
        </linearGradient>
        <linearGradient id="f" x1="186.401" y1="-13.708" x2="186.401" y2="200.529" gradientUnits="userSpaceOnUse">
            <stop stop-color="#67B6FF"/>
            <stop offset="1" stop-color="#fff"/>
        </linearGradient>
        <linearGradient id="g" x1="186.401" y1="-13.708" x2="186.401" y2="200.529" gradientUnits="userSpaceOnUse">
            <stop stop-color="#67B6FF"/>
            <stop offset="1" stop-color="#fff"/>
        </linearGradient>
    </defs>
</svg>
