<svg xmlns="http://www.w3.org/2000/svg" fill="none" viewBox="0 0 232 113"><mask id="b" width="227" height="87" x="0" y="15" fill="#000" maskUnits="userSpaceOnUse"><path fill="#fff" d="M0 15h227v87H0z"/><path d="M44.018 25.182a596.177 596.177 0 0 0-6.884 23.546A2491.53 2491.53 0 0 0 31.12 71.63v2.846c0 1.53.015 2.983.046 4.36l.183 4.039c.062 1.316.138 2.677.23 4.085.122 1.377.26 2.846.413 4.406H20.977c.245-1.897.46-3.656.643-5.278.184-1.653.321-3.274.413-4.865.122-1.592.214-3.229.275-4.912.062-1.682.092-3.518.092-5.507-.856-3.52-1.76-7.176-2.708-10.97a887.663 887.663 0 0 0-2.846-11.429c-.979-3.825-1.958-7.619-2.937-11.383-.98-3.794-1.943-7.45-2.892-10.97l11.475-.963c.122 2.509.321 5.171.597 7.986a324.157 324.157 0 0 0 2.386 17.35c.49 2.968.995 5.875 1.515 8.72.582-2.906 1.148-5.86 1.698-8.858a371.757 371.757 0 0 0 2.938-17.533c.428-2.785.795-5.4 1.101-7.849l11.291.276ZM70.996 64.7c0 3.733-.169 7.007-.505 9.822-.337 2.816-.826 5.263-1.469 7.344-.612 2.05-1.362 3.764-2.249 5.14-.857 1.347-1.82 2.433-2.892 3.26a9.452 9.452 0 0 1-3.396 1.744 14.128 14.128 0 0 1-3.764.505c-1.285 0-2.524-.138-3.717-.413a9.044 9.044 0 0 1-3.26-1.515c-1.01-.734-1.942-1.729-2.8-2.984-.825-1.254-1.53-2.86-2.11-4.819-.582-1.958-1.04-4.299-1.377-7.022-.306-2.724-.46-5.921-.46-9.593 0-5.508.398-10.021 1.194-13.54.826-3.519 1.897-6.288 3.213-8.308 1.316-2.05 2.815-3.457 4.498-4.222 1.683-.796 3.412-1.194 5.186-1.194 1.133 0 2.265.123 3.397.367a8.646 8.646 0 0 1 3.259 1.331c1.04.674 2.004 1.607 2.891 2.8.888 1.194 1.653 2.754 2.295 4.682.643 1.897 1.148 4.207 1.515 6.93.367 2.724.55 5.952.55 9.685Zm-9.868.367c0-2.937-.108-5.34-.322-7.206-.214-1.897-.505-3.396-.872-4.498-.367-1.101-.81-1.851-1.33-2.249-.521-.428-1.087-.642-1.7-.642-.703 0-1.315.306-1.835.918-.52.581-.964 1.53-1.331 2.845-.337 1.316-.597 3.014-.78 5.095-.184 2.05-.276 4.56-.276 7.527 0 3 .107 5.493.322 7.482.244 1.958.566 3.534.963 4.727.429 1.163.918 1.99 1.47 2.479.58.49 1.193.734 1.835.734 1.346 0 2.326-1.392 2.938-4.176.611-2.785.917-7.13.917-13.036Zm42.766-19.369a477.8 477.8 0 0 0-.505 14.642 757.515 757.515 0 0 0-.138 14.504v8.537c.031 2.815.092 5.66.184 8.537l-9.134.23V86.41c-.918 1.5-1.943 2.647-3.075 3.443-1.132.795-2.219 1.361-3.259 1.698-1.01.367-1.882.566-2.616.596a27.67 27.67 0 0 1-1.285.092c-1.928-.398-3.535-1.239-4.82-2.524-1.254-1.316-2.264-2.938-3.029-4.865-.734-1.959-1.254-4.162-1.56-6.61a62.184 62.184 0 0 1-.46-7.71c0-2.326.092-4.698.276-7.115.183-2.417.413-4.789.688-7.114.276-2.356.582-4.62.918-6.793.337-2.203.674-4.253 1.01-6.15l10.006.183a801.545 801.545 0 0 0-.872 5.875 341.545 341.545 0 0 0-.78 6.472 234.025 234.025 0 0 0-.551 6.655c-.123 2.203-.184 4.3-.184 6.288 0 1.836.077 3.55.23 5.14.153 1.592.398 2.984.734 4.177.337 1.163.765 2.081 1.285 2.754.551.643 1.224.964 2.02.964 1.04 0 1.897-.627 2.57-1.882.673-1.254 1.194-2.891 1.56-4.91.398-2.05.659-4.346.781-6.885.153-2.54.23-5.095.23-7.666 0-1.927-.031-3.763-.092-5.507a506.744 506.744 0 0 0-.184-4.682 500.896 500.896 0 0 0-.275-4.452l10.327-.184Zm65.108-19.002-6.426 66.094h-12.117a422.606 422.606 0 0 0-.322-7.573 147.924 147.924 0 0 0-.413-6.84c-.183-2.172-.397-4.298-.642-6.379-.214-2.08-.475-4.207-.781-6.38a222.813 222.813 0 0 0-.963-6.747c-.368-2.356-.765-4.865-1.194-7.527-.581 3.427-1.392 8.567-2.432 15.422a3091.184 3091.184 0 0 0-3.764 25.565l-12.714.643-4.59-66.002 11.567-.276a381.449 381.449 0 0 0-.046 6.197 419.835 419.835 0 0 0-.046 6.655v21.526c.03 2.203.046 4.33.046 6.38.03 2.05.076 3.917.137 5.6l6.289-39.978h10.602l5.003 38.096c.061-2.264.122-4.651.184-7.16a634.346 634.346 0 0 0 .367-15.285c.061-2.509.122-4.91.183-7.205.123-5.355.23-10.695.322-16.02l11.75 1.194Zm17.246 3.305c0 .948-.153 1.836-.459 2.662a5.99 5.99 0 0 1-1.376 2.111c-.612.582-1.393 1.04-2.341 1.377-.918.337-2.005.505-3.259.505-1.377 0-2.54-.168-3.488-.505-.918-.336-1.683-.795-2.295-1.377a5.76 5.76 0 0 1-1.285-2.11 9.322 9.322 0 0 1-.368-2.663c0-.918.138-1.775.413-2.57a5.714 5.714 0 0 1 1.286-2.158c.612-.611 1.392-1.086 2.34-1.422.949-.368 2.081-.551 3.397-.551 1.316 0 2.433.183 3.351.55.948.337 1.713.811 2.294 1.423a5.44 5.44 0 0 1 1.331 2.158c.306.795.459 1.652.459 2.57Zm-2.753 13.356a119.338 119.338 0 0 0-.459 5.416c-.123 1.928-.23 3.932-.322 6.013-.092 2.05-.153 4.146-.183 6.288a425.182 425.182 0 0 0-.046 6.242c0 2.387.015 4.697.046 6.931.061 2.203.122 4.238.183 6.105.092 1.866.184 3.518.276 4.957.122 1.438.26 2.555.413 3.35-1.224 0-2.494.03-3.81.092-1.132.061-2.402.138-3.809.23-1.408.091-2.815.229-4.223.413.52-5.508.872-10.542 1.056-15.101.183-4.59.275-8.705.275-12.347 0-3.12-.061-5.844-.184-8.17a165.275 165.275 0 0 0-.321-5.966c-.122-1.898-.275-3.52-.459-4.866 1.714.214 3.274.352 4.682.413 1.438.062 2.677.092 3.718.092h1.331c.397 0 .734-.015 1.009-.046.337 0 .612-.015.827-.046Zm23.213 47.368a184.733 184.733 0 0 0 1.423-14.963c.306-5.05.459-10.343.459-15.881 0-1.867-.122-3.35-.367-4.452-.245-1.133-.566-1.99-.964-2.57-.398-.613-.826-.995-1.285-1.148a3.577 3.577 0 0 0-1.331-.276c-.612 0-1.194.108-1.744.322-.521.214-1.01.627-1.469 1.24-.459.611-.888 1.468-1.285 2.57-.368 1.101-.689 2.554-.964 4.36-.276 1.805-.49 4.008-.643 6.61-.122 2.57-.183 5.645-.183 9.225v7.986c.03 1.255.046 2.371.046 3.35.03.95.076 1.622.137 2.02l-10.373-.092c.092-2.784.153-5.263.184-7.435.061-2.203.107-4.223.137-6.059.031-1.836.046-3.55.046-5.14.031-1.622.046-3.213.046-4.774 0-1.407-.015-2.845-.046-4.314 0-1.5-.015-3.106-.046-4.82 0-1.713-.03-3.58-.091-5.6-.031-2.05-.077-4.314-.138-6.792l10.74-.276-.183 4.682c.826-1.56 1.713-2.8 2.662-3.718.948-.948 1.882-1.683 2.8-2.203.948-.52 1.866-.857 2.753-1.01.888-.183 1.683-.275 2.387-.275 1.897 0 3.458.658 4.682 1.974 1.224 1.315 2.188 3.075 2.891 5.278.735 2.173 1.24 4.666 1.515 7.481.275 2.816.413 5.738.413 8.767 0 2.203-.061 4.437-.183 6.701a233.623 233.623 0 0 1-.368 6.701 190.146 190.146 0 0 1-.459 6.334c-.153 2.02-.29 3.902-.413 5.646l-10.786.55Z"/></mask><path fill="url(#a)" d="M44.018 25.182a596.177 596.177 0 0 0-6.884 23.546A2491.53 2491.53 0 0 0 31.12 71.63v2.846c0 1.53.015 2.983.046 4.36l.183 4.039c.062 1.316.138 2.677.23 4.085.122 1.377.26 2.846.413 4.406H20.977c.245-1.897.46-3.656.643-5.278.184-1.653.321-3.274.413-4.865.122-1.592.214-3.229.275-4.912.062-1.682.092-3.518.092-5.507-.856-3.52-1.76-7.176-2.708-10.97a887.663 887.663 0 0 0-2.846-11.429c-.979-3.825-1.958-7.619-2.937-11.383-.98-3.794-1.943-7.45-2.892-10.97l11.475-.963c.122 2.509.321 5.171.597 7.986a324.157 324.157 0 0 0 2.386 17.35c.49 2.968.995 5.875 1.515 8.72.582-2.906 1.148-5.86 1.698-8.858a371.757 371.757 0 0 0 2.938-17.533c.428-2.785.795-5.4 1.101-7.849l11.291.276ZM70.996 64.7c0 3.733-.169 7.007-.505 9.822-.337 2.816-.826 5.263-1.469 7.344-.612 2.05-1.362 3.764-2.249 5.14-.857 1.347-1.82 2.433-2.892 3.26a9.452 9.452 0 0 1-3.396 1.744 14.128 14.128 0 0 1-3.764.505c-1.285 0-2.524-.138-3.717-.413a9.044 9.044 0 0 1-3.26-1.515c-1.01-.734-1.942-1.729-2.8-2.984-.825-1.254-1.53-2.86-2.11-4.819-.582-1.958-1.04-4.299-1.377-7.022-.306-2.724-.46-5.921-.46-9.593 0-5.508.398-10.021 1.194-13.54.826-3.519 1.897-6.288 3.213-8.308 1.316-2.05 2.815-3.457 4.498-4.222 1.683-.796 3.412-1.194 5.186-1.194 1.133 0 2.265.123 3.397.367a8.646 8.646 0 0 1 3.259 1.331c1.04.674 2.004 1.607 2.891 2.8.888 1.194 1.653 2.754 2.295 4.682.643 1.897 1.148 4.207 1.515 6.93.367 2.724.55 5.952.55 9.685Zm-9.868.367c0-2.937-.108-5.34-.322-7.206-.214-1.897-.505-3.396-.872-4.498-.367-1.101-.81-1.851-1.33-2.249-.521-.428-1.087-.642-1.7-.642-.703 0-1.315.306-1.835.918-.52.581-.964 1.53-1.331 2.845-.337 1.316-.597 3.014-.78 5.095-.184 2.05-.276 4.56-.276 7.527 0 3 .107 5.493.322 7.482.244 1.958.566 3.534.963 4.727.429 1.163.918 1.99 1.47 2.479.58.49 1.193.734 1.835.734 1.346 0 2.326-1.392 2.938-4.176.611-2.785.917-7.13.917-13.036Zm42.766-19.369a477.8 477.8 0 0 0-.505 14.642 757.515 757.515 0 0 0-.138 14.504v8.537c.031 2.815.092 5.66.184 8.537l-9.134.23V86.41c-.918 1.5-1.943 2.647-3.075 3.443-1.132.795-2.219 1.361-3.259 1.698-1.01.367-1.882.566-2.616.596a27.67 27.67 0 0 1-1.285.092c-1.928-.398-3.535-1.239-4.82-2.524-1.254-1.316-2.264-2.938-3.029-4.865-.734-1.959-1.254-4.162-1.56-6.61a62.184 62.184 0 0 1-.46-7.71c0-2.326.092-4.698.276-7.115.183-2.417.413-4.789.688-7.114.276-2.356.582-4.62.918-6.793.337-2.203.674-4.253 1.01-6.15l10.006.183a801.545 801.545 0 0 0-.872 5.875 341.545 341.545 0 0 0-.78 6.472 234.025 234.025 0 0 0-.551 6.655c-.123 2.203-.184 4.3-.184 6.288 0 1.836.077 3.55.23 5.14.153 1.592.398 2.984.734 4.177.337 1.163.765 2.081 1.285 2.754.551.643 1.224.964 2.02.964 1.04 0 1.897-.627 2.57-1.882.673-1.254 1.194-2.891 1.56-4.91.398-2.05.659-4.346.781-6.885.153-2.54.23-5.095.23-7.666 0-1.927-.031-3.763-.092-5.507a506.744 506.744 0 0 0-.184-4.682 500.896 500.896 0 0 0-.275-4.452l10.327-.184Zm65.108-19.002-6.426 66.094h-12.117a422.606 422.606 0 0 0-.322-7.573 147.924 147.924 0 0 0-.413-6.84c-.183-2.172-.397-4.298-.642-6.379-.214-2.08-.475-4.207-.781-6.38a222.813 222.813 0 0 0-.963-6.747c-.368-2.356-.765-4.865-1.194-7.527-.581 3.427-1.392 8.567-2.432 15.422a3091.184 3091.184 0 0 0-3.764 25.565l-12.714.643-4.59-66.002 11.567-.276a381.449 381.449 0 0 0-.046 6.197 419.835 419.835 0 0 0-.046 6.655v21.526c.03 2.203.046 4.33.046 6.38.03 2.05.076 3.917.137 5.6l6.289-39.978h10.602l5.003 38.096c.061-2.264.122-4.651.184-7.16a634.346 634.346 0 0 0 .367-15.285c.061-2.509.122-4.91.183-7.205.123-5.355.23-10.695.322-16.02l11.75 1.194Zm17.246 3.305c0 .948-.153 1.836-.459 2.662a5.99 5.99 0 0 1-1.376 2.111c-.612.582-1.393 1.04-2.341 1.377-.918.337-2.005.505-3.259.505-1.377 0-2.54-.168-3.488-.505-.918-.336-1.683-.795-2.295-1.377a5.76 5.76 0 0 1-1.285-2.11 9.322 9.322 0 0 1-.368-2.663c0-.918.138-1.775.413-2.57a5.714 5.714 0 0 1 1.286-2.158c.612-.611 1.392-1.086 2.34-1.422.949-.368 2.081-.551 3.397-.551 1.316 0 2.433.183 3.351.55.948.337 1.713.811 2.294 1.423a5.44 5.44 0 0 1 1.331 2.158c.306.795.459 1.652.459 2.57Zm-2.753 13.356a119.338 119.338 0 0 0-.459 5.416c-.123 1.928-.23 3.932-.322 6.013-.092 2.05-.153 4.146-.183 6.288a425.182 425.182 0 0 0-.046 6.242c0 2.387.015 4.697.046 6.931.061 2.203.122 4.238.183 6.105.092 1.866.184 3.518.276 4.957.122 1.438.26 2.555.413 3.35-1.224 0-2.494.03-3.81.092-1.132.061-2.402.138-3.809.23-1.408.091-2.815.229-4.223.413.52-5.508.872-10.542 1.056-15.101.183-4.59.275-8.705.275-12.347 0-3.12-.061-5.844-.184-8.17a165.275 165.275 0 0 0-.321-5.966c-.122-1.898-.275-3.52-.459-4.866 1.714.214 3.274.352 4.682.413 1.438.062 2.677.092 3.718.092h1.331c.397 0 .734-.015 1.009-.046.337 0 .612-.015.827-.046Zm23.213 47.368a184.733 184.733 0 0 0 1.423-14.963c.306-5.05.459-10.343.459-15.881 0-1.867-.122-3.35-.367-4.452-.245-1.133-.566-1.99-.964-2.57-.398-.613-.826-.995-1.285-1.148a3.577 3.577 0 0 0-1.331-.276c-.612 0-1.194.108-1.744.322-.521.214-1.01.627-1.469 1.24-.459.611-.888 1.468-1.285 2.57-.368 1.101-.689 2.554-.964 4.36-.276 1.805-.49 4.008-.643 6.61-.122 2.57-.183 5.645-.183 9.225v7.986c.03 1.255.046 2.371.046 3.35.03.95.076 1.622.137 2.02l-10.373-.092c.092-2.784.153-5.263.184-7.435.061-2.203.107-4.223.137-6.059.031-1.836.046-3.55.046-5.14.031-1.622.046-3.213.046-4.774 0-1.407-.015-2.845-.046-4.314 0-1.5-.015-3.106-.046-4.82 0-1.713-.03-3.58-.091-5.6-.031-2.05-.077-4.314-.138-6.792l10.74-.276-.183 4.682c.826-1.56 1.713-2.8 2.662-3.718.948-.948 1.882-1.683 2.8-2.203.948-.52 1.866-.857 2.753-1.01.888-.183 1.683-.275 2.387-.275 1.897 0 3.458.658 4.682 1.974 1.224 1.315 2.188 3.075 2.891 5.278.735 2.173 1.24 4.666 1.515 7.481.275 2.816.413 5.738.413 8.767 0 2.203-.061 4.437-.183 6.701a233.623 233.623 0 0 1-.368 6.701 190.146 190.146 0 0 1-.459 6.334c-.153 2.02-.29 3.902-.413 5.646l-10.786.55Z"/><path fill="#243041" d="m44.018 25.182 7.63 2.403 3.195-10.142-10.63-.259-.195 7.998Zm-6.884 23.546L29.41 46.64l-.003.01-.003.01 7.729 2.068ZM31.12 71.63l-7.748-1.993-.252.98v1.013h8Zm.046 7.206-7.998.178.002.092.004.093 7.992-.363Zm.183 4.039-7.991.363v.009l7.991-.372Zm.23 4.085-7.983.52.006.095.008.093 7.969-.708Zm.413 4.406v8h8.823l-.861-8.78-7.962.78Zm-11.016 0-7.934-1.024-1.164 9.024h9.098v-8Zm.643-5.278 7.95.9v-.008l.001-.009-7.951-.883Zm.413-4.865-7.976-.614-.006.076-.005.077 7.987.46Zm.367-10.42h8v-.96l-.227-.932-7.773 1.893Zm-2.708-10.969-7.775 1.881.007.03.007.03 7.761-1.941Zm-2.846-11.429-7.75 1.984 7.75-1.984ZM13.91 37.023l-7.746 2 .002.007.002.008 7.742-2.015Zm-2.892-10.97-.67-7.971-9.548.802 2.494 9.252 7.724-2.082Zm11.475-.963 7.99-.39-.403-8.276-8.257.694.67 7.972Zm.597 7.986-7.962.78.004.047.006.047 7.952-.874Zm3.901 26.07-7.87 1.439 15.715.13-7.845-1.569Zm1.698-8.858-7.856-1.508-.006.032-.006.03 7.868 1.446Zm2.938-17.533-7.907-1.217-.007.043-.006.043 7.92 1.13Zm1.101-7.849.196-7.997-7.236-.177-.898 7.182 7.938.992Zm3.66-2.128a604.171 604.171 0 0 0-6.976 23.862l15.445 4.175a588.018 588.018 0 0 1 6.793-23.23l-15.261-4.807Zm-6.982 23.883a2493.334 2493.334 0 0 0-6.032 22.977l15.496 3.986c1.89-7.348 3.888-14.958 5.993-22.83l-15.457-4.133Zm-6.284 24.97v2.846h16V71.63h-16Zm0 2.846c0 1.582.016 3.095.048 4.538l15.996-.356c-.03-1.312-.044-2.705-.044-4.182h-16Zm.054 4.723.092 2.02.006.126.005.126a53.335 53.335 0 0 0 .012.253l.006.126a53.25 53.25 0 0 0 .011.252l.006.127.006.126.005.126a53.25 53.25 0 0 0 .012.252c0 .022.005.105.006.127l.005.126.006.126.006.126 15.983-.726-.092-2.02-.023-.505-.022-.505-.023-.505-.023-.504-15.984.726Zm.184 4.048c.064 1.368.143 2.78.238 4.234l15.966-1.042a211.246 211.246 0 0 1-.221-3.936l-15.983.744Zm.252 4.421c.125 1.404.265 2.897.42 4.479l15.924-1.561c-.151-1.54-.286-2.984-.407-4.334l-15.937 1.416Zm8.382-4.302H20.977v16h11.016v-16Zm-3.081 9.024c.249-1.932.468-3.733.657-5.402l-15.898-1.8a335.144 335.144 0 0 1-.628 5.154l15.869 2.048Zm.659-5.419c.199-1.787.348-3.55.449-5.288l-15.974-.921a84.143 84.143 0 0 1-.377 4.442l15.902 1.767Zm.438-5.135c.132-1.704.23-3.449.294-5.234l-15.99-.581c-.057 1.58-.143 3.11-.256 4.588l15.952 1.227Zm.294-5.234c.065-1.795.097-3.73.097-5.798h-16c0 1.908-.03 3.646-.086 5.217l15.99.581Zm-.13-7.69c-.86-3.537-1.767-7.21-2.72-11.018l-15.522 3.88c.945 3.78 1.844 7.42 2.696 10.922l15.546-3.785Zm-2.705-10.96a898.28 898.28 0 0 0-2.871-11.53l-15.5 3.967c.97 3.791 1.91 7.567 2.82 11.326l15.55-3.762Zm-2.871-11.53c-.982-3.836-1.964-7.64-2.946-11.414L6.167 39.038c.976 3.753 1.953 7.537 2.93 11.352l15.5-3.968Zm-2.942-11.399c-.986-3.82-1.957-7.504-2.913-11.053L3.293 28.136c.94 3.49 1.897 7.118 2.87 10.887l15.492-3.999Zm-9.968-.998 11.475-.964-1.34-15.944-11.474.964 1.34 15.944Zm2.815-8.546c.129 2.654.338 5.446.625 8.375l15.924-1.558a156.711 156.711 0 0 1-.568-7.597l-15.982.78Zm.635 8.47c.314 2.858.674 5.774 1.081 8.748l15.853-2.17a316.36 316.36 0 0 1-1.03-8.326L15.137 33.95Zm1.081 8.748a332.55 332.55 0 0 0 1.364 9.03l15.787-2.604c-.478-2.898-.91-5.763-1.298-8.595l-15.853 2.169Zm1.364 9.03c.497 3.012 1.01 5.964 1.538 8.857l15.74-2.877a502.07 502.07 0 0 1-1.491-8.584l-15.787 2.604Zm17.253 8.987c.59-2.949 1.163-5.943 1.722-8.982l-15.737-2.89a563.965 563.965 0 0 1-1.675 8.735l15.69 3.137Zm1.71-8.92c.593-3.09 1.14-6.138 1.64-9.142l-15.781-2.63c-.479 2.87-1.003 5.79-1.572 8.757l15.713 3.016Zm1.64-9.142c.5-2.995.953-5.917 1.36-8.767l-15.839-2.263c-.388 2.72-.822 5.52-1.302 8.4l15.782 2.63Zm1.348-8.682c.438-2.848.816-5.54 1.133-8.072l-15.877-1.985a273.631 273.631 0 0 1-1.07 7.624l15.814 2.433Zm-7-1.067 11.29.275.39-15.995-11.29-.275-.39 15.995Zm36.489 48.962-7.644-2.36-.01.036-.012.036 7.666 2.288Zm-2.249 5.14-6.725-4.333-.012.02-.012.019 6.749 4.295Zm-2.892 3.26-4.886-6.335-.045.035-.044.035 4.975 6.265Zm-10.877 1.836-1.844 7.784.022.005.023.006 1.799-7.795Zm-6.06-4.499-6.68 4.4.036.057.039.055 6.606-4.511Zm-2.11-4.819-7.67 2.277 7.67-2.277Zm-1.377-7.022-7.95.893.005.044.005.044 7.94-.981Zm.734-23.133L36.403 50.8l-.008.033-.007.032 7.803 1.764Zm3.213-8.308 6.703 4.367.015-.023.015-.023-6.733-4.32Zm4.498-4.222 3.31 7.283.055-.025.054-.026-3.42-7.232Zm8.583-.826-1.69 7.819.12.026.12.022 1.45-7.867Zm3.259 1.33-4.438 6.657.046.03.046.03 4.346-6.717Zm5.186 7.482-7.59 2.53.007.018.006.018 7.577-2.566Zm-8.124 9.776-7.95.898.002.007v.007l7.948-.912Zm-2.203-6.747-5.086 6.176.112.091.114.088 4.86-6.355Zm-3.534.276 5.962 5.334.068-.076.065-.077-6.095-5.181Zm-1.331 2.845-7.706-2.15-.023.084-.022.084 7.75 1.982Zm-.78 5.095 7.968.714v-.01l-7.968-.704Zm.046 15.009-7.954.856.007.068.008.068 7.939-.992Zm.963 4.727-7.59 2.53.04.119.044.117 7.506-2.766Zm1.47 2.479-5.316 5.98.08.07.082.07 5.153-6.12ZM62.995 64.7c0 3.509-.16 6.453-.449 8.873l15.887 1.9c.384-3.212.562-6.815.562-10.773h-16Zm-.449 8.873c-.295 2.471-.703 4.426-1.169 5.933l15.288 4.72c.82-2.654 1.39-5.595 1.768-8.754l-15.887-1.9Zm-1.19 6.005c-.459 1.535-.932 2.512-1.309 3.095l13.45 8.667c1.398-2.17 2.424-4.62 3.19-7.186l-15.332-4.576Zm-1.333 3.134c-.447.701-.811 1.051-1.029 1.22L68.768 96.6c1.924-1.485 3.487-3.307 4.754-5.298l-13.498-8.59ZM58.906 84c-.236.188-.406.258-.542.295l4.242 15.427a17.45 17.45 0 0 0 6.25-3.192L58.906 84Zm-.542.295a6.13 6.13 0 0 1-1.643.219v16c1.993 0 3.962-.263 5.885-.792l-4.242-15.427Zm-1.643.219a8.49 8.49 0 0 1-1.919-.209l-3.597 15.59c1.811.419 3.655.619 5.516.619v-16Zm-1.874-.198a1.065 1.065 0 0 1-.397-.2l-9.41 12.94a17.041 17.041 0 0 0 6.12 2.83l3.687-15.57Zm-.397-.2c-.128-.093-.45-.369-.899-1.025L40.34 92.115c1.265 1.853 2.809 3.566 4.7 4.942l9.411-12.94Zm-.824-.913c-.27-.412-.69-1.24-1.123-2.697l-15.339 4.554c.73 2.46 1.718 4.845 3.1 6.942l13.362-8.8Zm-1.123-2.697c-.422-1.419-.807-3.303-1.107-5.727l-15.879 1.963c.374 3.023.906 5.82 1.647 8.318l15.339-4.554Zm-1.096-5.639c-.264-2.346-.41-5.232-.41-8.7h-16c0 3.878.161 7.387.51 10.487l15.9-1.787Zm-.41-8.7c0-5.189.382-9.053.997-11.775l-15.606-3.528c-.976 4.316-1.39 9.478-1.39 15.304h16Zm.982-11.71c.71-3.023 1.504-4.813 2.128-5.77L40.7 39.954c-2.008 3.082-3.355 6.83-4.298 10.846l15.576 3.657Zm2.158-5.816c.743-1.158 1.175-1.306 1.075-1.26l-6.62-14.566c-3.466 1.575-6.032 4.242-7.92 7.184l13.465 8.642Zm1.184-1.31c.668-.316 1.233-.427 1.767-.427v-16c-3.014 0-5.907.685-8.605 1.961l6.838 14.465Zm1.767-.427c.551 0 1.117.06 1.706.187l3.382-15.639a24.031 24.031 0 0 0-5.088-.548v16Zm1.948.235c.066.012.14.033.27.12l8.875-13.313a16.646 16.646 0 0 0-6.247-2.542L59.036 47.14Zm.362.18c.096.062.389.28.818.857l12.839-9.547c-1.346-1.81-2.98-3.459-4.965-4.743L59.398 47.32Zm.818.857c.233.314.66 1.042 1.125 2.438l15.179-5.06c-.82-2.46-1.924-4.852-3.465-6.925l-12.84 9.547Zm1.137 2.474c.43 1.27.842 3.046 1.164 5.434l15.856-2.138c-.412-3.06-1.01-5.903-1.866-8.428L61.353 50.65Zm1.164 5.434c.306 2.269.479 5.122.479 8.615h16c0-3.973-.194-7.576-.623-10.753l-15.856 2.138Zm6.61 8.982c0-3.093-.11-5.83-.373-8.118l-15.896 1.824c.166 1.445.27 3.513.27 6.294h16Zm-.371-8.103c-.243-2.147-.612-4.27-1.232-6.13l-15.18 5.06c.115.342.327 1.217.513 2.865l15.899-1.795Zm-1.232-6.13c-.531-1.592-1.618-4.206-4.061-6.075l-9.72 12.71c-.775-.593-1.164-1.187-1.302-1.42-.144-.244-.156-.334-.096-.156l15.179-5.06Zm-3.835-5.895c-1.798-1.48-4.126-2.467-6.784-2.467v16c-.65 0-1.316-.118-1.948-.357a5.118 5.118 0 0 1-1.44-.825L63.69 44.939Zm-6.784-2.467c-3.397 0-6.131 1.618-7.932 3.736l12.191 10.363c-.318.374-.858.88-1.668 1.286a5.825 5.825 0 0 1-2.591.615v-16Zm-7.798 3.583c-1.738 1.943-2.59 4.294-3.075 6.03l15.411 4.3c.048-.168.087-.29.116-.37.03-.082.043-.108.034-.088a2.209 2.209 0 0 1-.131.232c-.082.13-.22.33-.431.565L49.107 46.055Zm-3.12 6.198c-.485 1.895-.795 4.065-.998 6.374l15.938 1.406c.163-1.852.373-3.079.561-3.815l-15.5-3.965Zm-.998 6.364c-.211 2.365-.307 5.128-.307 8.24h16c0-2.824.088-5.079.244-6.813l-15.937-1.427Zm-.307 8.24c0 3.16.112 5.963.367 8.338l15.909-1.713c-.173-1.602-.276-3.786-.276-6.625h-16Zm.383 8.474c.278 2.222.682 4.374 1.313 6.265l15.179-5.06c-.165-.495-.404-1.495-.615-3.19l-15.877 1.985Zm1.396 6.501c.61 1.659 1.67 3.923 3.66 5.692l10.63-11.958c.497.441.731.819.787.914.062.104.028.07-.064-.18l-15.013 5.532Zm3.822 5.832c1.747 1.472 4.128 2.615 6.989 2.615v-16c1.575 0 2.733.654 3.317 1.147L50.283 87.664Zm6.989 2.615c3.962 0 6.743-2.245 8.288-4.442 1.377-1.958 2.063-4.195 2.463-6.017l-15.627-3.435c-.211.962-.321.813.076.248.24-.341.749-.95 1.632-1.479a6.202 6.202 0 0 1 3.168-.875v16Zm10.751-10.46c.808-3.675 1.105-8.746 1.105-14.752h-16c0 5.806-.316 9.425-.732 11.318l15.627 3.435Zm35.871-34.12 7.99.396.425-8.548-8.557.153.142 7.998Zm-.505 14.64 7.998.154.001-.001-7.999-.152Zm-.138 23.042h-8v.087l8-.087Zm.184 8.537.201 7.997 8.052-.202-.257-8.05-7.996.255Zm-9.134.23h-8v8.203l8.201-.206-.2-7.998Zm0-5.738h8V58.022l-14.823 24.21 6.823 4.178Zm-6.334 5.14-2.463-7.61-.136.043-.135.05 2.734 7.518Zm-2.616.597-.333-7.993-.166.007-.166.014.665 7.972Zm-1.285.092-1.617 7.835.8.165h.817v-8Zm-4.82-2.524-5.79 5.52.066.07.067.067 5.657-5.657Zm-3.029-4.865-7.49 2.809.026.07.028.071 7.436-2.95ZM75.161 56.3l7.945.942.001-.012-7.946-.93Zm.918-6.792 7.906 1.225.001-.009.002-.008-7.909-1.208Zm1.01-6.15.147-8-6.83-.125-1.194 6.727 7.877 1.397Zm10.006.183 7.909 1.206 1.378-9.037-9.14-.168-.147 7.999Zm-.872 5.875-7.917-1.147-.008.056-.008.056 7.933 1.035Zm-.78 6.472-7.951-.884-.007.055-.005.055 7.963.774Zm-.551 6.655-7.981-.547-.004.052-.003.051 7.988.444Zm.046 11.429-7.963.765 7.963-.765Zm.734 4.176-7.7 2.172.008.027.008.026 7.684-2.225Zm1.285 2.754-6.33 4.892.124.16.132.155 6.074-5.207Zm4.59-.918-7.05-3.782 7.05 3.782Zm1.56-4.91-7.853-1.525-.009.047-.008.046 7.87 1.431Zm.781-6.885-7.986-.482-.002.048-.003.048 7.991.386Zm-.046-17.855 7.992-.355-.002-.053-.003-.053-7.987.461Zm-.275-4.452-.142-7.999-8.4.15.56 8.381 7.982-.532Zm2.337-.58c-.25 5.006-.42 9.968-.514 14.886l15.998.304c.09-4.752.255-9.55.496-14.397l-15.98-.794Zm-.514 14.885c-.092 4.856-.139 9.741-.139 14.657h16c0-4.815.046-9.599.136-14.351l-15.997-.306Zm-.139 14.657V83.38h16V74.844h-16Zm0 8.624c.032 2.872.094 5.774.188 8.705l15.992-.51a398.47 398.47 0 0 1-.18-8.37l-16 .175Zm7.983.453-9.134.229.402 15.995 9.134-.23-.402-15.995Zm-.933 8.226V86.41h-16v5.737h16Zm-14.823-9.914c-.495.81-.822 1.053-.852 1.074l9.2 13.091c2.234-1.57 3.957-3.621 5.298-5.81l-13.646-8.355Zm-.852 1.074c-.642.451-1.014.597-1.122.632l4.926 15.223c1.972-.638 3.773-1.624 5.395-2.764l-9.199-13.091Zm-1.393.725c-.252.092-.4.131-.456.144-.026.005-.018.003.02-.003.036-.005.112-.014.22-.019l.667 15.987c1.838-.077 3.558-.541 5.017-1.072l-5.468-15.037Zm-.547.143a70.953 70.953 0 0 1-.915.07l.047-.001c.023-.001.117-.005.248-.005v16c.548 0 1.423-.075 1.95-.119l-1.33-15.945Zm.996.23c-.53-.11-.69-.259-.779-.347L73.59 95.372c2.483 2.482 5.534 4.016 8.86 4.702l3.233-15.67Zm-.646-.21c-.453-.476-.944-1.19-1.383-2.296L68.781 87.8c1.09 2.75 2.62 5.28 4.675 7.435l11.58-11.04Zm-1.328-2.154c-.48-1.28-.871-2.858-1.113-4.793l-15.877 1.984c.37 2.962 1.02 5.789 2.008 8.427l14.982-5.618Zm-1.113-4.793a54.204 54.204 0 0 1-.397-6.719h-16c0 2.995.17 5.898.52 8.704l15.877-1.985Zm-.397-6.719c0-2.115.083-4.284.252-6.508l-15.954-1.212c-.198 2.61-.298 5.184-.298 7.72h16Zm.252-6.508c.175-2.31.394-4.57.656-6.78l-15.89-1.881c-.288 2.44-.528 4.924-.72 7.45l15.954 1.21Zm.657-6.791c.265-2.265.558-4.43.878-6.497l-15.811-2.45a191.732 191.732 0 0 0-.959 7.089l15.892 1.858Zm.88-6.514c.329-2.15.655-4.136.98-5.961L69.211 41.96c-.35 1.969-.696 4.083-1.04 6.34l15.816 2.416Zm-7.045.64 10.006.184.294-15.998-10.006-.183-.294 15.997Zm2.245-9.021a811.69 811.69 0 0 0-.881 5.934l15.834 2.294c.304-2.094.592-4.033.864-5.816l-15.818-2.412Zm-.897 6.046a350.82 350.82 0 0 0-.798 6.623l15.902 1.767c.24-2.155.493-4.261.762-6.32L78.29 48.38Zm-.81 6.733a242.06 242.06 0 0 0-.57 6.882l15.963 1.094c.148-2.16.325-4.302.532-6.428L77.48 55.114Zm-.576 6.985a121.59 121.59 0 0 0-.196 6.732h16c0-1.826.056-3.773.172-5.844l-15.976-.888Zm-.196 6.732c0 2.055.086 4.027.267 5.906L92.9 73.206a45.916 45.916 0 0 1-.193-4.375h-16Zm.267 5.906c.186 1.939.5 3.82.998 5.583l15.399-4.343c-.176-.624-.351-1.527-.471-2.771l-15.926 1.531Zm1.013 5.636c.507 1.752 1.303 3.691 2.639 5.42l12.66-9.782c.083.107.137.191.169.244.031.053.043.079.04.07a1.576 1.576 0 0 1-.046-.11 4.368 4.368 0 0 1-.093-.291l-15.37 4.449Zm2.895 5.736c1.96 2.287 4.799 3.757 8.094 3.757v-16c.713 0 1.534.153 2.344.54.797.38 1.357.878 1.71 1.29L80.883 86.109Zm8.094 3.757c5.05 0 8.14-3.341 9.62-6.1l-14.1-7.564c.046-.085.37-.67 1.177-1.261a5.65 5.65 0 0 1 3.303-1.075v16Zm9.62-6.1c1.2-2.236 1.925-4.75 2.382-7.262l-15.742-2.862c-.278 1.528-.593 2.288-.74 2.56l14.1 7.565Zm2.364-7.169c.485-2.496.781-5.18.918-8.023l-15.982-.77c-.108 2.236-.332 4.141-.643 5.745l15.707 3.048Zm.912-7.927c.163-2.702.244-5.417.244-8.147h-16a119.4 119.4 0 0 1-.215 7.184l15.971.963Zm.244-8.147c0-2.011-.031-3.941-.096-5.788l-15.99.561c.057 1.642.087 3.384.087 5.227h15.999Zm-.096-5.788a503.084 503.084 0 0 0-.187-4.756l-15.984.71c.06 1.347.12 2.882.18 4.607l15.991-.56Zm-.192-4.862c-.093-1.611-.186-3.12-.28-4.523l-15.965 1.064c.09 1.35.18 2.81.271 4.38l15.974-.92Zm-8.12 4.008 10.327-.184-.284-15.998-10.328.184.285 15.998Zm75.293-27.185 7.962.774.771-7.928-7.925-.805-.808 7.96Zm-6.426 66.094v8h7.26l.702-7.226-7.962-.774Zm-12.117 0-7.996.273.264 7.727h7.732v-8Zm-.322-7.573-7.994.307.002.054.003.054 7.989-.415Zm-1.055-13.219-7.958.82.006.057.007.058 7.945-.935Zm-.781-6.38-7.936 1.006.007.055.008.055 7.921-1.116Zm-.963-6.747-7.905 1.232.001.008.002.008 7.902-1.248Zm-1.194-7.527 7.899-1.271-15.786-.067 7.887 1.338Zm-2.432 15.422 7.908 1.205.001-.005-7.909-1.2Zm-3.764 25.565.404 7.99 6.578-.333.937-6.519-7.919-1.138Zm-12.714.643-7.981.555.545 7.831 7.84-.397-.404-7.99Zm-4.59-66.002-.19-7.998-8.371.2.581 8.353 7.98-.555Zm11.567-.276 7.999.13.134-8.326-8.324.199.191 7.997Zm-.046 6.197 7.999.127.001-.064v-.063h-8Zm-.046 28.181h-8v.056l.001.055 7.999-.11Zm.046 6.38h-8v.06l.001.06 7.999-.12Zm.137 5.6-7.994.29 15.897.953-7.903-1.243Zm6.289-39.978v-8h-6.84l-1.063 6.757 7.903 1.243Zm10.602 0 7.932-1.041-.914-6.959h-7.018v8Zm5.003 38.096-7.932 1.041 15.929-.825-7.997-.216Zm.184-7.16-7.995-.29-.002.048-.001.047 7.998.195Zm.367-15.285-7.998-.194-.001.048-.001.049 8 .097Zm.183-7.205 7.998.213v-.031l-7.998-.182Zm.322-16.02.808-7.958-8.657-.88-.15 8.701 7.999.138Zm3.787.42-6.426 66.094 15.925 1.548 6.426-66.094-15.925-1.548Zm1.537 58.868h-12.117v16h12.117v-16Zm-4.122 7.727a434.636 434.636 0 0 0-.327-7.715l-15.979.83c.12 2.302.225 4.779.315 7.43l15.991-.544Zm-.322-7.608a158.66 158.66 0 0 0-.436-7.205l-15.943 1.348c.172 2.04.303 4.196.39 6.472l15.989-.615Zm-.436-7.205c-.191-2.256-.414-4.47-.669-6.64l-15.89 1.869c.234 1.99.439 4.03.616 6.119l15.943-1.348Zm-.656-6.525c-.225-2.185-.497-4.41-.817-6.677l-15.843 2.232c.292 2.079.54 4.106.744 6.083l15.916-1.638Zm-.802-6.567a230.258 230.258 0 0 0-.998-6.989l-15.804 2.496c.355 2.25.665 4.42.929 6.505l15.873-2.012Zm-.996-6.973c-.369-2.37-.769-4.893-1.199-7.566l-15.797 2.542c.426 2.65.822 5.146 1.187 7.488l15.809-2.464Zm-16.985-7.633c-.593 3.498-1.413 8.695-2.455 15.56l15.819 2.4c1.039-6.844 1.841-11.928 2.411-15.284l-15.775-2.676Zm-2.454 15.554c-1.045 6.854-2.303 15.4-3.774 25.633l15.838 2.276a3138.995 3138.995 0 0 1 3.753-25.498l-15.817-2.411Zm3.741 18.781-12.714.643.808 15.979 12.714-.642-.808-15.98Zm-4.329 8.078-4.59-66.002-15.961 1.11 4.589 66.002 15.962-1.11Zm-12.38-57.45 11.566-.275-.381-15.995-11.566.275.381 15.995Zm3.377-8.402a387.185 387.185 0 0 0-.047 6.326h16c0-2.198.015-4.22.045-6.068l-15.998-.258Zm-.046 6.199a425.8 425.8 0 0 0-.047 6.782h16c0-2.479.015-4.653.045-6.529l-15.998-.253Zm-.047 6.782V47.488h16V39.548h-16Zm0 7.94V54.281h16V47.488h-16Zm0 6.793V61.074h16V54.281h-16Zm.001 6.904c.03 2.17.045 4.259.045 6.27h16c0-2.09-.016-4.254-.047-6.492l-15.998.222Zm.046 6.388c.031 2.096.078 4.02.142 5.771l15.989-.581a254.32 254.32 0 0 1-.133-5.428l-15.998.239Zm16.039 6.724 6.288-39.978-15.805-2.486-6.288 39.978 15.805 2.486Zm-1.614-33.22h10.602v-16h-10.602v16Zm2.67-6.96 5.003 38.096 15.864-2.083-5.003-38.095-15.864 2.083Zm20.932 37.271c.062-2.272.123-4.666.184-7.181l-15.995-.39a2692.71 2692.71 0 0 1-.183 7.139l15.994.432Zm.181-7.087c.093-2.573.171-5.161.233-7.764l-15.996-.38c-.06 2.537-.136 5.06-.226 7.566l15.989.578Zm.233-7.764c.062-2.6.108-5.171.139-7.712l-15.999-.195c-.03 2.477-.075 4.986-.136 7.526l15.996.381Zm.137-7.614c.061-2.504.123-4.9.184-7.188l-15.995-.427c-.061 2.302-.122 4.71-.184 7.224l15.995.39Zm.184-7.219c.123-5.37.23-10.724.322-16.063l-15.997-.276c-.092 5.31-.198 10.634-.321 15.974l15.996.365Zm-8.485-8.242 11.75 1.193 1.617-15.918-11.75-1.193-1.617 15.918Zm29.346-.799 7.467 2.872.018-.047.017-.046-7.502-2.779Zm-1.376 2.111 5.51 5.8.074-.07.072-.073-5.656-5.657Zm-2.341 1.377-2.676-7.54-.039.015-.039.014 2.754 7.511Zm-6.747 0-2.754 7.511.039.015.039.014 2.676-7.54Zm-2.295-1.377-5.8 5.51.141.15.149.14 5.51-5.8Zm-1.285-2.11-7.671 2.272.052.173.059.171 7.56-2.617Zm.045-5.233 7.56 2.616.015-.043.015-.044-7.59-2.53Zm1.286-2.158-5.657-5.656-.073.072-.07.074 5.8 5.51Zm2.34-1.422 2.676 7.539.107-.038.105-.04-2.888-7.461Zm6.748 0-2.972 7.427.147.06.149.052 2.676-7.54Zm2.294 1.422-5.8 5.51.071.075.073.072 5.656-5.657Zm1.331 2.158-7.589 2.53.057.172.066.17 7.466-2.872Zm-2.294 15.926 7.952.868 1.118-10.245-10.202 1.458 1.132 7.92Zm-.781 11.43 7.992.357.001-.005-7.993-.353Zm-.183 6.287 7.999.116v-.002l-7.999-.114Zm0 13.173-8 .11.001.056.002.056 7.997-.222Zm.183 6.105-7.995.262.002.065.003.066 7.99-.393Zm.276 4.957-7.984.51.005.084.008.084 7.971-.678Zm.413 3.35v8h9.685l-1.829-9.51-7.856 1.51Zm-3.81.092-.371-7.991-.031.001-.03.002.432 7.988Zm-8.032.643-7.965-.753-.942 9.982 9.942-1.297-1.035-7.932Zm1.056-15.101 7.993.322v-.002l-7.993-.32Zm.091-20.517-7.993.312.002.054.002.055 7.989-.42Zm-.321-5.966-7.983.515.003.043.003.044 7.977-.602Zm-.459-4.866.992-7.938-10.324-1.29 1.406 10.31 7.926-1.082Zm4.682.413-.348 7.993h.008l.34-7.993Zm6.058.046v-8h-.443l-.44.05.883 7.95Zm-4.42-13.402c0 .043-.003.046.002.018a.785.785 0 0 1 .037-.134l15.004 5.557c.66-1.782.957-3.617.957-5.441h-16Zm.075-.21a2.025 2.025 0 0 1 .433-.673l11.313 11.313a14.004 14.004 0 0 0 3.187-4.896l-14.933-5.744Zm.58-.817c.341-.324.586-.395.493-.362l5.351 15.079c1.805-.64 3.61-1.63 5.176-3.117l-11.02-11.6Zm.415-.334c.093-.034.111-.029.026-.016a3.578 3.578 0 0 1-.531.032v16c1.941 0 4.003-.257 6.013-.994l-5.508-15.022Zm-.505.016c-.368 0-.615-.023-.759-.043-.144-.021-.15-.035-.054-.001l-5.351 15.079c2.06.73 4.187.965 6.164.965v-16Zm-.734-.016c-.053-.02.165.053.461.334l-11.02 11.6c1.519 1.444 3.268 2.435 5.051 3.088l5.508-15.022Zm.751.624a2.2 2.2 0 0 1 .474.782l-15.119 5.234a13.77 13.77 0 0 0 3.045 5.004l11.6-11.02Zm.585 1.126c-.005-.018-.038-.133-.038-.389h-16c0 1.641.213 3.3.697 4.935l15.341-4.546Zm-.038-.389c0-.058.005-.076.002-.062a.943.943 0 0 1-.029.108l-15.119-5.233a15.798 15.798 0 0 0-.854 5.187h16Zm.003-.04c-.037.11-.097.25-.189.405a2.397 2.397 0 0 1-.315.417l-11.6-11.02a13.71 13.71 0 0 0-3.075 5.138l15.179 5.06Zm-.648.97c-.356.355-.649.462-.64.459l-5.351-15.079c-1.888.67-3.742 1.726-5.322 3.306l11.313 11.313Zm-.428.38c-.105.041-.131.037-.046.023.086-.014.265-.034.555-.034v-16c-2.028 0-4.188.279-6.285 1.09l5.776 14.921Zm.509-.011c.291 0 .46.02.527.032.066.01.004.007-.148-.054l5.943-14.855c-2.119-.848-4.306-1.123-6.322-1.123v16Zm.675.09c-.011-.004-.392-.146-.83-.607l11.6-11.02c-1.6-1.684-3.511-2.775-5.419-3.452l-5.351 15.079Zm-.686-.46a2.497 2.497 0 0 1-.36-.457 2.454 2.454 0 0 1-.242-.512l15.179-5.06a13.447 13.447 0 0 0-3.264-5.284L178.802 30.93Zm-.479-.628a1.207 1.207 0 0 1-.065-.226c-.01-.06-.01-.088-.01-.075h16a15.09 15.09 0 0 0-.992-5.442l-14.933 5.743Zm-2.781 12.188a127.523 127.523 0 0 0-.49 5.776l15.968 1.014c.115-1.823.259-3.507.427-5.055l-15.905-1.735Zm-.49 5.776a320.048 320.048 0 0 0-.33 6.168l15.985.705c.089-2.034.194-3.986.313-5.859l-15.968-1.014Zm-.33 6.162a214.206 214.206 0 0 0-.19 6.532l15.998.228c.029-2.064.088-4.079.176-6.044l-15.984-.716Zm-.19 6.53a426.927 426.927 0 0 0-.047 6.358h16c0-2.01.015-4.052.045-6.126l-15.998-.232Zm-.047 6.358c0 2.421.015 4.768.046 7.04l15.999-.218a499.51 499.51 0 0 1-.045-6.822h-16Zm.049 7.153c.061 2.214.123 4.263.185 6.145l15.991-.525a1197.44 1197.44 0 0 1-.182-6.064l-15.994.444Zm.19 6.276c.093 1.894.187 3.587.282 5.073l15.967-1.019c-.088-1.39-.178-3.002-.268-4.84l-15.981.785Zm.295 5.242c.13 1.538.296 2.979.528 4.183l15.712-3.022c-.075-.387-.184-1.18-.298-2.518l-15.942 1.357Zm8.384-5.328a90.07 90.07 0 0 0-4.181.1l.743 15.983a74.172 74.172 0 0 1 3.438-.083v-16Zm-4.242.104c-1.167.063-2.468.141-3.898.234l1.041 15.966c1.385-.09 2.625-.164 3.721-.224l-.864-15.976Zm-3.898.234c-1.58.103-3.159.258-4.737.464l2.07 15.865a57.69 57.69 0 0 1 3.708-.362l-1.041-15.967Zm4.263 9.149c.531-5.622.894-10.802 1.084-15.531l-15.987-.644c-.177 4.39-.517 9.277-1.027 14.67l15.93 1.505Zm1.084-15.533c.187-4.67.282-8.896.282-12.667h-16c0 3.512-.089 7.518-.269 12.027l15.987.64Zm.282-12.667c0-3.217-.063-6.087-.195-8.59l-15.978.84c.114 2.148.173 4.726.173 7.75h16Zm-.19-8.481a174.092 174.092 0 0 0-.338-6.258l-15.954 1.205c.112 1.492.215 3.378.305 5.676l15.987-.623Zm-.331-6.17c-.131-2.019-.299-3.84-.516-5.432l-15.853 2.162c.15 1.101.287 2.523.402 4.3l15.967-1.03Zm-9.435 3.588a66.53 66.53 0 0 0 5.326.467l.695-15.985a50.632 50.632 0 0 1-4.037-.359l-1.984 15.877Zm5.334.467c1.512.064 2.87.1 4.058.1v-16c-.894 0-2.014-.027-3.378-.085l-.68 15.985Zm4.058.1H181.659v-16H180.328v16Zm1.331 0c.577 0 1.228-.022 1.893-.096l-1.767-15.902c.067-.007.091-.007.061-.006a4.302 4.302 0 0 1-.187.003v16Zm1.009-.047c.532 0 1.223-.021 1.958-.126l-2.263-15.84c.173-.024.287-.031.321-.033.038-.002.036 0-.016 0v16Zm24.04 39.322-7.926-1.084-1.307 9.566 9.641-.493-.408-7.99Zm1.423-14.963-7.985-.484-.002.024-.001.024 7.988.436Zm.092-20.333-7.82 1.69.005.023.005.022 7.81-1.735Zm-.964-2.57-6.708 4.36.052.079.053.078 6.603-4.518Zm-1.285-1.148-2.971 7.428.218.087.223.074 2.53-7.59Zm-3.075.046-2.9-7.456-.073.028-.073.03 3.046 7.398Zm-2.754 3.81-7.525-2.718-.033.094-.032.094 7.59 2.53Zm-1.607 10.97-7.986-.47-.003.044-.002.045 7.991.38Zm-.183 17.211h-8v.098l.002.097 7.998-.195Zm.046 3.35h-8v.13l.004.129 7.996-.258Zm.137 2.02-.071 8 9.409.083-1.431-9.3-7.907 1.217Zm-10.373-.092-7.995-.263-.27 8.19 8.194.073.071-8Zm.184-7.435-7.997-.222-.002.054v.055l7.999.113Zm.183-11.2-7.998-.15-.002.075v.076h8Zm0-9.087h-8v.083l.002.083 7.998-.166Zm-.046-4.82h-8v.072l.002.071 7.998-.143Zm-.091-5.6-7.999.12v.062l.002.061 7.997-.242Zm-.138-6.792-.205-7.998-7.99.205.197 7.99 7.998-.197Zm10.74-.276 7.994.314.335-8.53-8.534.219.205 7.997Zm-.183 4.682-7.994-.313 15.064 4.056-7.07-3.743Zm2.662-3.718 5.563 5.75.047-.047.047-.046-5.657-5.657Zm2.8-2.203-3.847-7.014-.049.026-.049.028 3.945 6.96Zm2.753-1.01 1.36 7.884.131-.023.13-.026-1.621-7.835Zm7.069 1.699-5.858 5.449 5.858-5.45Zm2.891 5.278-7.62 2.434.02.064.022.064 7.578-2.562Zm1.745 22.95-7.989-.433-.003.054-.002.054 7.994.324Zm-.368 6.7-7.98-.554-.004.052-.003.052 7.987.45Zm-.459 6.334-7.968-.713-.005.054-.004.055 7.977.604Zm-.413 5.646.408 7.99 7.077-.362.496-7.068-7.981-.56Zm-2.859 1.634a192.838 192.838 0 0 0 1.484-15.61l-15.976-.872a177.08 177.08 0 0 1-1.361 14.316l15.853 2.166Zm1.481-15.562c.317-5.225.474-10.68.474-16.365h-16c0 5.392-.149 10.523-.444 15.397l15.97.968Zm.474-16.365c0-2.124-.131-4.268-.558-6.188l-15.619 3.471c.063.283.177 1.108.177 2.717h16Zm-.548-6.143c-.341-1.576-.941-3.585-2.181-5.397l-13.205 9.035a3.802 3.802 0 0 1-.268-.452 1.712 1.712 0 0 1-.08-.178c-.005-.013.004.01.022.075.019.066.044.163.073.298l15.639-3.381Zm-2.076-5.24c-.905-1.392-2.604-3.424-5.462-4.377l-5.06 15.18c-1.94-.647-2.783-1.914-2.893-2.083l13.415-8.72Zm-5.021-4.215a11.567 11.567 0 0 0-4.302-.848v16a4.45 4.45 0 0 1-1.64-.296l5.942-14.856Zm-4.302-.848a12.77 12.77 0 0 0-4.644.866l5.799 14.912a3.23 3.23 0 0 1-1.155.222v-16Zm-4.79.924c-2.248.926-3.8 2.472-4.823 3.837l12.8 9.6c-.106.141-.678.861-1.885 1.358l-6.092-14.795Zm-4.823 3.837c-1.117 1.489-1.869 3.157-2.41 4.653l15.049 5.435c.115-.32.203-.513.251-.609.05-.1.03-.038-.09.121l-12.8-9.6Zm-2.475 4.84c-.568 1.705-.973 3.653-1.283 5.684l15.817 2.413c.241-1.58.479-2.538.645-3.037l-15.179-5.06Zm-1.283 5.684c-.324 2.128-.558 4.593-.72 7.346l15.972.94c.144-2.449.339-4.39.565-5.873l-15.817-2.413Zm-.725 7.436c-.13 2.735-.192 5.944-.192 9.606h16c0-3.498.06-6.44.174-8.845l-15.982-.761Zm-.192 9.606V79.8h16V75.762h-16Zm0 4.039V83.748h16V79.801h-16Zm.002 4.142c.029 1.207.044 2.257.044 3.156h16c0-1.06-.017-2.243-.049-3.546l-15.995.39Zm.048 3.414c.031.956.085 2.057.226 2.978l15.814-2.433c.012.077.014.107.011.07a4.136 4.136 0 0 1-.017-.201 30.16 30.16 0 0 1-.043-.93l-15.991.516Zm8.204-6.239-10.373-.091-.142 16 10.373.09.142-15.999Zm-2.448 8.172c.093-2.822.156-5.352.187-7.587l-15.998-.225c-.03 2.11-.09 4.537-.18 7.285l15.991.527Zm.185-7.477c.062-2.227.108-4.277.139-6.148l-15.997-.266c-.03 1.801-.076 3.79-.136 5.97l15.994.444Zm.139-6.148c.032-1.873.047-3.632.047-5.273h-16c0 1.54-.014 3.209-.044 5.007l15.997.266Zm.046-5.123c.031-1.67.047-3.311.047-4.924h-16c0 1.508-.015 3.05-.044 4.623l15.997.302Zm.047-4.924c0-1.465-.016-2.959-.047-4.48l-15.997.332c.03 1.416.044 2.799.044 4.148h16Zm-.046-4.314c0-1.553-.015-3.208-.047-4.962l-15.997.285c.03 1.673.044 3.231.044 4.677h16Zm-.046-4.82c0-1.807-.032-3.755-.095-5.842l-15.993.485c.06 1.953.088 3.737.088 5.357h16Zm-.092-5.719a729.74 729.74 0 0 0-.139-6.87l-15.996.394c.061 2.458.106 4.696.137 6.715l15.998-.239Zm-7.932 1.324 10.74-.275-.41-15.995-10.74.275.41 15.995Zm2.541-8.586-.183 4.682 15.987.627.184-4.682-15.988-.627Zm14.881 8.738c.557-1.051.976-1.539 1.155-1.712l-11.127-11.498c-1.718 1.663-3.073 3.654-4.169 5.724l14.141 7.486Zm1.249-1.804c.569-.57.939-.816 1.087-.9l-7.889-13.92c-1.687.956-3.185 2.18-4.512 3.506l11.314 11.314Zm.989-.845c.325-.178.406-.165.267-.14l-2.719-15.768c-1.914.33-3.669 1.016-5.241 1.879l7.693 14.029Zm.528-.19c.498-.104.736-.11.766-.11v-16c-1.377 0-2.73.177-4.007.441l3.241 15.669Zm.766-.11c.01 0-.199-.002-.514-.135a1.995 1.995 0 0 1-.662-.442l11.715-10.898c-2.829-3.042-6.559-4.525-10.539-4.525v16Zm-1.176-.578c.226.243.684.873 1.129 2.264l15.241-4.868c-.963-3.016-2.432-5.904-4.655-8.293L208.24 48.715Zm1.171 2.392c.5 1.479.902 3.355 1.131 5.698l15.924-1.558c-.322-3.287-.929-6.398-1.898-9.264l-15.157 5.124Zm1.131 5.698c.248 2.54.375 5.2.375 7.988h16c0-3.271-.149-6.454-.451-9.546l-15.924 1.558Zm.375 7.988c0 2.055-.057 4.145-.172 6.27l15.977.863c.13-2.404.195-4.782.195-7.133h-16Zm-.177 6.377c-.089 2.19-.207 4.347-.354 6.471l15.961 1.109c.159-2.282.285-4.593.38-6.932l-15.987-.648Zm-.361 6.575a183.2 183.2 0 0 1-.44 6.07l15.936 1.428c.192-2.143.352-4.342.479-6.598l-15.975-.9Zm-.449 6.18a971.186 971.186 0 0 0-.416 5.69l15.961 1.12c.121-1.727.257-3.594.41-5.601l-15.955-1.209Zm7.156-1.74-10.786.551.816 15.98 10.786-.552-.816-15.979Z" mask="url(#b)"/><defs><linearGradient id="a" x1="116" x2="116" y1="18.552" y2="113" gradientUnits="userSpaceOnUse"><stop stop-color="#67B6FF"/><stop offset="1" stop-color="#fff"/></linearGradient></defs></svg>
